<svg width="375" height="374.999991" xmlns="http://www.w3.org/2000/svg" version="1.0" preserveAspectRatio="xMidYMid meet" zoomAndPan="magnify">
 <title>logo-black</title>
 <defs>
  <clipPath id="3b6b7740bc">
   <path id="svg_1" clip-rule="nonzero" d="m5.39063,108.12891l275.60937,0l0,178.87109l-275.60937,0l0,-178.87109zm0,0"/>
  </clipPath>
  <clipPath id="fc665e4690">
   <path id="svg_2" clip-rule="nonzero" d="m280.28125,153.33203l-274.46094,133.33985l0,-90.16407l181.91407,-88.3789l92.54687,45.20312zm0,0"/>
  </clipPath>
  <clipPath id="b7154c652f">
   <path id="svg_3" clip-rule="nonzero" d="m187,108.12891l182.60938,0l0,178.87109l-182.60938,0l0,-178.87109zm0,0"/>
  </clipPath>
  <clipPath id="fa43ba992b">
   <path id="svg_4" clip-rule="nonzero" d="m187.73438,198.53516l181.41796,88.13672l0,-90.16407l-181.91406,-88.3789l0.4961,90.40625zm0,0"/>
  </clipPath>
  <clipPath id="fe25e66317">
   <path id="svg_5" clip-rule="nonzero" d="m94,196l275.60938,0l0,179l-275.60938,0l0,-179zm0,0"/>
  </clipPath>
  <clipPath id="e5cb5c1393">
   <path id="svg_6" clip-rule="nonzero" d="m369.15234,286.57031l-181.91406,88.37891l-92.54687,-45.20313l274.46093,-133.34375l0,90.16797zm0,0"/>
  </clipPath>
  <clipPath id="7185fb1cb3">
   <path id="svg_7" clip-rule="nonzero" d="m5.39063,196l182.60937,0l0,179l-182.60937,0l0,-179zm0,0"/>
  </clipPath>
  <clipPath id="d965197033">
   <path id="svg_8" clip-rule="nonzero" d="m5.82031,286.57031l181.91407,88.37891l-0.2461,-90.28906l-181.66797,-88.25782l0,90.16797zm0,0"/>
  </clipPath>
  <clipPath id="00e0a36a4a">
   <path id="svg_9" clip-rule="nonzero" d="m5.39063,0l275.60937,0l0,179l-275.60937,0l0,-179zm0,0"/>
  </clipPath>
  <clipPath id="1359a07677">
   <path id="svg_10" clip-rule="nonzero" d="m280.28125,45.20313l-274.46094,133.34375l0,-90.16797l181.91407,-88.37891l92.54687,45.20313zm0,0"/>
  </clipPath>
  <clipPath id="7abe83d232">
   <path id="svg_11" clip-rule="nonzero" d="m187,0l182.60938,0l0,179l-182.60938,0l0,-179zm0,0"/>
  </clipPath>
  <clipPath id="a3e940451d">
   <path id="svg_12" clip-rule="nonzero" d="m187.73438,90.40625l181.41796,88.14063l0,-90.16797l-181.91406,-88.37891l0.4961,90.40625zm0,0"/>
  </clipPath>
  <clipPath id="e8bdef9821">
   <path id="svg_13" clip-rule="nonzero" d="m94,88l275.60938,0l0,179l-275.60938,0l0,-179zm0,0"/>
  </clipPath>
  <clipPath id="6dd9ac3931">
   <path id="svg_14" clip-rule="nonzero" d="m369.15234,178.44141l-181.91406,88.3789l-92.54687,-45.20312l274.46093,-133.33985l0,90.16407zm0,0"/>
  </clipPath>
  <clipPath id="d924ba9d65">
   <path id="svg_15" clip-rule="nonzero" d="m5.39063,88l182.60937,0l0,179l-182.60937,0l0,-179zm0,0"/>
  </clipPath>
  <clipPath id="bfca0198c0">
   <path id="svg_16" clip-rule="nonzero" d="m5.82031,178.44141l181.91407,88.3789l-0.2461,-90.28515l-181.66797,-88.25782l0,90.16407zm0,0"/>
  </clipPath>
 </defs>
 <g>
  <title>Layer 1</title>
  <g id="svg_17" clip-path="url(#3b6b7740bc)">
   <g id="svg_18" clip-path="url(#fc665e4690)">
    <path id="svg_19" fill-rule="nonzero" d="m5.82031,108.12891l0,178.54297l274.46094,0l0,-178.54297l-274.46094,0zm0,0" fill="#000000"/>
   </g>
  </g>
  <g id="svg_20" clip-path="url(#b7154c652f)">
   <g id="svg_21" clip-path="url(#fa43ba992b)">
    <path id="svg_22" fill-rule="nonzero" d="m187.23828,108.12891l0,178.54297l181.91406,0l0,-178.54297l-181.91406,0zm0,0" fill="#000000"/>
   </g>
  </g>
  <g id="svg_23" clip-path="url(#fe25e66317)">
   <g id="svg_24" clip-path="url(#e5cb5c1393)">
    <path id="svg_25" fill-rule="nonzero" d="m94.69141,196.40234l0,178.54688l274.46093,0l0,-178.54688l-274.46093,0zm0,0" fill="#000000"/>
   </g>
  </g>
  <g id="svg_26" clip-path="url(#7185fb1cb3)">
   <g id="svg_27" clip-path="url(#d965197033)">
    <path id="svg_28" fill-rule="nonzero" d="m5.82031,196.40234l0,178.54688l181.91407,0l0,-178.54688l-181.91407,0zm0,0" fill="#000000"/>
   </g>
  </g>
  <g id="svg_29" clip-path="url(#00e0a36a4a)">
   <g id="svg_30" clip-path="url(#1359a07677)">
    <path id="svg_31" fill-rule="nonzero" d="m5.82031,0l0,178.54688l274.46094,0l0,-178.54688l-274.46094,0zm0,0" fill="#000000"/>
   </g>
  </g>
  <g id="svg_32" clip-path="url(#7abe83d232)">
   <g id="svg_33" clip-path="url(#a3e940451d)">
    <path id="svg_34" fill-rule="nonzero" d="m187.23828,0l0,178.54688l181.91406,0l0,-178.54688l-181.91406,0zm0,0" fill="#000000"/>
   </g>
  </g>
  <g id="svg_35" clip-path="url(#e8bdef9821)">
   <g id="svg_36" clip-path="url(#6dd9ac3931)">
    <path id="svg_37" fill-rule="nonzero" d="m94.69141,88.27734l0,178.54297l274.46093,0l0,-178.54297l-274.46093,0zm0,0" fill="#000000"/>
   </g>
  </g>
  <g id="svg_38" clip-path="url(#d924ba9d65)">
   <g id="svg_39" clip-path="url(#bfca0198c0)">
    <path id="svg_40" fill-rule="nonzero" d="m5.82031,88.27734l0,178.54297l181.91407,0l0,-178.54297l-181.91407,0zm0,0" fill="#000000"/>
   </g>
  </g>
 </g>
</svg>